<mxfile host="app.diagrams.net" agent="Mozilla/5.0 (Macintosh; Intel Mac OS X 10_15_7) AppleWebKit/537.36 (KHTML, like Gecko) Chrome/127.0.0.0 Safari/537.36" version="24.7.7">
  <diagram name="第 1 页" id="x59Uxk3ggrUwqdH15TSh">
    <mxGraphModel dx="1234" dy="543" grid="1" gridSize="10" guides="1" tooltips="1" connect="1" arrows="1" fold="1" page="1" pageScale="1" pageWidth="827" pageHeight="1169" math="0" shadow="0">
      <root>
        <mxCell id="0" />
        <mxCell id="1" parent="0" />
        <mxCell id="p-67I27a6HYqufGm_aE5-4" value="" style="edgeStyle=orthogonalEdgeStyle;rounded=0;orthogonalLoop=1;jettySize=auto;html=1;" edge="1" parent="1" source="p-67I27a6HYqufGm_aE5-2" target="p-67I27a6HYqufGm_aE5-3">
          <mxGeometry relative="1" as="geometry" />
        </mxCell>
        <mxCell id="p-67I27a6HYqufGm_aE5-2" value="&lt;font size=&quot;1&quot;&gt;Speech to Text&lt;/font&gt;" style="rounded=1;whiteSpace=wrap;html=1;" vertex="1" parent="1">
          <mxGeometry x="254" y="200" width="120" height="60" as="geometry" />
        </mxCell>
        <mxCell id="p-67I27a6HYqufGm_aE5-6" value="" style="edgeStyle=orthogonalEdgeStyle;rounded=0;orthogonalLoop=1;jettySize=auto;html=1;" edge="1" parent="1" source="p-67I27a6HYqufGm_aE5-3" target="p-67I27a6HYqufGm_aE5-5">
          <mxGeometry relative="1" as="geometry" />
        </mxCell>
        <mxCell id="p-67I27a6HYqufGm_aE5-3" value="Hugging Chat API" style="whiteSpace=wrap;html=1;rounded=1;" vertex="1" parent="1">
          <mxGeometry x="454" y="200" width="120" height="60" as="geometry" />
        </mxCell>
        <mxCell id="p-67I27a6HYqufGm_aE5-8" value="" style="edgeStyle=orthogonalEdgeStyle;rounded=0;orthogonalLoop=1;jettySize=auto;html=1;" edge="1" parent="1" source="p-67I27a6HYqufGm_aE5-5" target="p-67I27a6HYqufGm_aE5-7">
          <mxGeometry relative="1" as="geometry" />
        </mxCell>
        <mxCell id="p-67I27a6HYqufGm_aE5-5" value="Hugging Chat" style="ellipse;shape=cloud;whiteSpace=wrap;html=1;rounded=1;" vertex="1" parent="1">
          <mxGeometry x="454" y="320" width="120" height="80" as="geometry" />
        </mxCell>
        <mxCell id="p-67I27a6HYqufGm_aE5-9" value="" style="edgeStyle=orthogonalEdgeStyle;rounded=0;orthogonalLoop=1;jettySize=auto;html=1;" edge="1" parent="1" source="p-67I27a6HYqufGm_aE5-7" target="p-67I27a6HYqufGm_aE5-2">
          <mxGeometry relative="1" as="geometry" />
        </mxCell>
        <mxCell id="p-67I27a6HYqufGm_aE5-7" value="Text to Speech" style="whiteSpace=wrap;html=1;rounded=1;" vertex="1" parent="1">
          <mxGeometry x="254" y="330" width="120" height="60" as="geometry" />
        </mxCell>
      </root>
    </mxGraphModel>
  </diagram>
</mxfile>
